<?xml version="1.0" encoding="UTF-8" standalone="no"?>
<!DOCTYPE svg PUBLIC "-//W3C//DTD SVG 1.1//EN"
 "http://www.w3.org/Graphics/SVG/1.1/DTD/svg11.dtd">
<!-- Generated by graphviz version 2.47.3 (20210619.1520)
 -->
<!-- Title: dependencies Pages: 1 -->
<svg width="1098pt" height="247pt"
 viewBox="0.00 0.00 1098.00 246.80" xmlns="http://www.w3.org/2000/svg" xmlns:xlink="http://www.w3.org/1999/xlink">
<g id="graph0" class="graph" transform="scale(1 1) rotate(0) translate(4 242.8)">
<title>dependencies</title>
<polygon fill="white" stroke="transparent" points="-4,4 -4,-242.8 1094,-242.8 1094,4 -4,4"/>
<text text-anchor="middle" x="545" y="-8.2" font-family="sans-serif" font-size="14.00">dependencies</text>
<g id="clust1" class="cluster">
<title>cluster_AuthModule</title>
<polygon fill="none" stroke="black" stroke-dasharray="1,5" points="8,-32.8 8,-230.8 1082,-230.8 1082,-32.8 8,-32.8"/>
</g>
<g id="clust6" class="cluster">
<title>cluster_AuthModule_providers</title>
<polygon fill="none" stroke="black" points="513,-40.8 513,-92.8 1074,-92.8 1074,-40.8 513,-40.8"/>
</g>
<g id="clust3" class="cluster">
<title>cluster_AuthModule_imports</title>
<polygon fill="none" stroke="black" points="16,-40.8 16,-92.8 505,-92.8 505,-40.8 16,-40.8"/>
</g>
<g id="clust4" class="cluster">
<title>cluster_AuthModule_exports</title>
<polygon fill="none" stroke="black" points="456,-170.8 456,-222.8 562,-222.8 562,-170.8 456,-170.8"/>
</g>
<!-- PermissionsModule -->
<g id="node1" class="node">
<title>PermissionsModule</title>
<polygon fill="#8dd3c7" stroke="black" points="496.71,-84.8 493.71,-88.8 472.71,-88.8 469.71,-84.8 369.29,-84.8 369.29,-48.8 496.71,-48.8 496.71,-84.8"/>
<text text-anchor="middle" x="433" y="-62.6" font-family="Times,serif" font-size="14.00">PermissionsModule</text>
</g>
<!-- AuthModule -->
<g id="node5" class="node">
<title>AuthModule</title>
<polygon fill="#8dd3c7" stroke="black" points="552.55,-149.8 549.55,-153.8 528.55,-153.8 525.55,-149.8 465.45,-149.8 465.45,-113.8 552.55,-113.8 552.55,-149.8"/>
<text text-anchor="middle" x="509" y="-127.6" font-family="Times,serif" font-size="14.00">AuthModule</text>
</g>
<!-- PermissionsModule&#45;&gt;AuthModule -->
<g id="edge1" class="edge">
<title>PermissionsModule&#45;&gt;AuthModule</title>
<path fill="none" stroke="black" d="M480.92,-84.91C480.92,-84.91 480.92,-103.79 480.92,-103.79"/>
<polygon fill="black" stroke="black" points="477.42,-103.79 480.92,-113.79 484.42,-103.79 477.42,-103.79"/>
</g>
<!-- RolesModule -->
<g id="node2" class="node">
<title>RolesModule</title>
<polygon fill="#8dd3c7" stroke="black" points="351.94,-84.8 348.94,-88.8 327.94,-88.8 324.94,-84.8 260.06,-84.8 260.06,-48.8 351.94,-48.8 351.94,-84.8"/>
<text text-anchor="middle" x="306" y="-62.6" font-family="Times,serif" font-size="14.00">RolesModule</text>
</g>
<!-- RolesModule&#45;&gt;AuthModule -->
<g id="edge2" class="edge">
<title>RolesModule&#45;&gt;AuthModule</title>
<path fill="none" stroke="black" d="M306,-84.83C306,-101.2 306,-122.8 306,-122.8 306,-122.8 455.45,-122.8 455.45,-122.8"/>
<polygon fill="black" stroke="black" points="455.45,-126.3 465.45,-122.8 455.45,-119.3 455.45,-126.3"/>
</g>
<!-- SessionsModule -->
<g id="node3" class="node">
<title>SessionsModule</title>
<polygon fill="#8dd3c7" stroke="black" points="241.77,-84.8 238.77,-88.8 217.77,-88.8 214.77,-84.8 134.23,-84.8 134.23,-48.8 241.77,-48.8 241.77,-84.8"/>
<text text-anchor="middle" x="188" y="-62.6" font-family="Times,serif" font-size="14.00">SessionsModule</text>
</g>
<!-- SessionsModule&#45;&gt;AuthModule -->
<g id="edge3" class="edge">
<title>SessionsModule&#45;&gt;AuthModule</title>
<path fill="none" stroke="black" d="M188,-84.91C188,-104.14 188,-131.8 188,-131.8 188,-131.8 455.37,-131.8 455.37,-131.8"/>
<polygon fill="black" stroke="black" points="455.37,-135.3 465.37,-131.8 455.37,-128.3 455.37,-135.3"/>
</g>
<!-- UsersModule -->
<g id="node4" class="node">
<title>UsersModule</title>
<polygon fill="#8dd3c7" stroke="black" points="115.92,-84.8 112.92,-88.8 91.92,-88.8 88.92,-84.8 24.08,-84.8 24.08,-48.8 115.92,-48.8 115.92,-84.8"/>
<text text-anchor="middle" x="70" y="-62.6" font-family="Times,serif" font-size="14.00">UsersModule</text>
</g>
<!-- UsersModule&#45;&gt;AuthModule -->
<g id="edge4" class="edge">
<title>UsersModule&#45;&gt;AuthModule</title>
<path fill="none" stroke="black" d="M70,-85.09C70,-107.01 70,-140.8 70,-140.8 70,-140.8 455.3,-140.8 455.3,-140.8"/>
<polygon fill="black" stroke="black" points="455.3,-144.3 465.3,-140.8 455.3,-137.3 455.3,-144.3"/>
</g>
<!-- AuthService  -->
<g id="node6" class="node">
<title>AuthService </title>
<polygon fill="#fb8072" stroke="black" points="553.98,-214.8 464.02,-214.8 464.02,-178.8 553.98,-178.8 553.98,-214.8"/>
<text text-anchor="middle" x="509" y="-192.6" font-family="Times,serif" font-size="14.00">AuthService </text>
</g>
<!-- AuthModule&#45;&gt;AuthService  -->
<g id="edge5" class="edge">
<title>AuthModule&#45;&gt;AuthService </title>
<path fill="none" stroke="black" stroke-dasharray="5,2" d="M509,-149.91C509,-149.91 509,-168.79 509,-168.79"/>
<polygon fill="black" stroke="black" points="505.5,-168.79 509,-178.79 512.5,-168.79 505.5,-168.79"/>
</g>
<!-- AuthService -->
<g id="node7" class="node">
<title>AuthService</title>
<ellipse fill="#fdb462" stroke="black" cx="1007" cy="-66.8" rx="59.11" ry="18"/>
<text text-anchor="middle" x="1007" y="-62.6" font-family="Times,serif" font-size="14.00">AuthService</text>
</g>
<!-- AuthService&#45;&gt;AuthModule -->
<g id="edge6" class="edge">
<title>AuthService&#45;&gt;AuthModule</title>
<path fill="none" stroke="black" d="M1007,-85.09C1007,-107.01 1007,-140.8 1007,-140.8 1007,-140.8 562.76,-140.8 562.76,-140.8"/>
<polygon fill="black" stroke="black" points="562.76,-137.3 552.76,-140.8 562.76,-144.3 562.76,-137.3"/>
</g>
<!-- BasicStrategy -->
<g id="node8" class="node">
<title>BasicStrategy</title>
<ellipse fill="#fdb462" stroke="black" cx="865" cy="-66.8" rx="64.84" ry="18"/>
<text text-anchor="middle" x="865" y="-62.6" font-family="Times,serif" font-size="14.00">BasicStrategy</text>
</g>
<!-- BasicStrategy&#45;&gt;AuthModule -->
<g id="edge7" class="edge">
<title>BasicStrategy&#45;&gt;AuthModule</title>
<path fill="none" stroke="black" d="M865,-84.91C865,-104.14 865,-131.8 865,-131.8 865,-131.8 562.65,-131.8 562.65,-131.8"/>
<polygon fill="black" stroke="black" points="562.65,-128.3 552.65,-131.8 562.65,-135.3 562.65,-128.3"/>
</g>
<!-- JwtStrategy -->
<g id="node9" class="node">
<title>JwtStrategy</title>
<ellipse fill="#fdb462" stroke="black" cx="726" cy="-66.8" rx="56.76" ry="18"/>
<text text-anchor="middle" x="726" y="-62.6" font-family="Times,serif" font-size="14.00">JwtStrategy</text>
</g>
<!-- JwtStrategy&#45;&gt;AuthModule -->
<g id="edge8" class="edge">
<title>JwtStrategy&#45;&gt;AuthModule</title>
<path fill="none" stroke="black" d="M726,-84.83C726,-101.2 726,-122.8 726,-122.8 726,-122.8 562.65,-122.8 562.65,-122.8"/>
<polygon fill="black" stroke="black" points="562.65,-119.3 552.65,-122.8 562.65,-126.3 562.65,-119.3"/>
</g>
<!-- LocalStrategy -->
<g id="node10" class="node">
<title>LocalStrategy</title>
<ellipse fill="#fdb462" stroke="black" cx="586" cy="-66.8" rx="65.41" ry="18"/>
<text text-anchor="middle" x="586" y="-62.6" font-family="Times,serif" font-size="14.00">LocalStrategy</text>
</g>
<!-- LocalStrategy&#45;&gt;AuthModule -->
<g id="edge9" class="edge">
<title>LocalStrategy&#45;&gt;AuthModule</title>
<path fill="none" stroke="black" d="M536.79,-78.72C536.79,-78.72 536.79,-103.57 536.79,-103.57"/>
<polygon fill="black" stroke="black" points="533.29,-103.57 536.79,-113.57 540.29,-103.57 533.29,-103.57"/>
</g>
</g>
</svg>
