<?xml version="1.0" encoding="UTF-8" standalone="no"?>
<!DOCTYPE svg PUBLIC "-//W3C//DTD SVG 1.1//EN"
 "http://www.w3.org/Graphics/SVG/1.1/DTD/svg11.dtd">
<!-- Generated by graphviz version 2.47.3 (20210619.1520)
 -->
<!-- Title: dependencies Pages: 1 -->
<svg width="766pt" height="174pt"
 viewBox="0.00 0.00 766.00 173.80" xmlns="http://www.w3.org/2000/svg" xmlns:xlink="http://www.w3.org/1999/xlink">
<g id="graph0" class="graph" transform="scale(1 1) rotate(0) translate(4 169.8)">
<title>dependencies</title>
<polygon fill="white" stroke="transparent" points="-4,4 -4,-169.8 762,-169.8 762,4 -4,4"/>
<text text-anchor="middle" x="379" y="-8.2" font-family="sans-serif" font-size="14.00">dependencies</text>
<g id="clust1" class="cluster">
<title>cluster_ApiModule</title>
<polygon fill="none" stroke="black" stroke-dasharray="1,5" points="8,-32.8 8,-157.8 750,-157.8 750,-32.8 8,-32.8"/>
</g>
<g id="clust3" class="cluster">
<title>cluster_ApiModule_imports</title>
<polygon fill="none" stroke="black" points="16,-40.8 16,-92.8 742,-92.8 742,-40.8 16,-40.8"/>
</g>
<!-- ArticlesModule -->
<g id="node1" class="node">
<title>ArticlesModule</title>
<polygon fill="#8dd3c7" stroke="black" points="733.86,-84.8 730.86,-88.8 709.86,-88.8 706.86,-84.8 630.14,-84.8 630.14,-48.8 733.86,-48.8 733.86,-84.8"/>
<text text-anchor="middle" x="682" y="-62.6" font-family="Times,serif" font-size="14.00">ArticlesModule</text>
</g>
<!-- ApiModule -->
<g id="node7" class="node">
<title>ApiModule</title>
<polygon fill="#8dd3c7" stroke="black" points="416.05,-149.8 413.05,-153.8 392.05,-153.8 389.05,-149.8 335.95,-149.8 335.95,-113.8 416.05,-113.8 416.05,-149.8"/>
<text text-anchor="middle" x="376" y="-127.6" font-family="Times,serif" font-size="14.00">ApiModule</text>
</g>
<!-- ArticlesModule&#45;&gt;ApiModule -->
<g id="edge1" class="edge">
<title>ArticlesModule&#45;&gt;ApiModule</title>
<path fill="none" stroke="black" d="M682,-85.08C682,-106.12 682,-137.8 682,-137.8 682,-137.8 426.32,-137.8 426.32,-137.8"/>
<polygon fill="black" stroke="black" points="426.32,-134.3 416.32,-137.8 426.32,-141.3 426.32,-134.3"/>
</g>
<!-- AuthModule -->
<g id="node2" class="node">
<title>AuthModule</title>
<polygon fill="#8dd3c7" stroke="black" points="611.55,-84.8 608.55,-88.8 587.55,-88.8 584.55,-84.8 524.45,-84.8 524.45,-48.8 611.55,-48.8 611.55,-84.8"/>
<text text-anchor="middle" x="568" y="-62.6" font-family="Times,serif" font-size="14.00">AuthModule</text>
</g>
<!-- AuthModule&#45;&gt;ApiModule -->
<g id="edge2" class="edge">
<title>AuthModule&#45;&gt;ApiModule</title>
<path fill="none" stroke="black" d="M568,-84.82C568,-102.17 568,-125.8 568,-125.8 568,-125.8 426.25,-125.8 426.25,-125.8"/>
<polygon fill="black" stroke="black" points="426.25,-122.3 416.25,-125.8 426.25,-129.3 426.25,-122.3"/>
</g>
<!-- CategoriesModule -->
<g id="node3" class="node">
<title>CategoriesModule</title>
<polygon fill="#8dd3c7" stroke="black" points="506.92,-84.8 503.92,-88.8 482.92,-88.8 479.92,-84.8 387.08,-84.8 387.08,-48.8 506.92,-48.8 506.92,-84.8"/>
<text text-anchor="middle" x="447" y="-62.6" font-family="Times,serif" font-size="14.00">CategoriesModule</text>
</g>
<!-- CategoriesModule&#45;&gt;ApiModule -->
<g id="edge3" class="edge">
<title>CategoriesModule&#45;&gt;ApiModule</title>
<path fill="none" stroke="black" d="M401.78,-84.91C401.78,-84.91 401.78,-103.79 401.78,-103.79"/>
<polygon fill="black" stroke="black" points="398.28,-103.79 401.78,-113.79 405.28,-103.79 398.28,-103.79"/>
</g>
<!-- PermissionsModule -->
<g id="node4" class="node">
<title>PermissionsModule</title>
<polygon fill="#8dd3c7" stroke="black" points="369.71,-84.8 366.71,-88.8 345.71,-88.8 342.71,-84.8 242.29,-84.8 242.29,-48.8 369.71,-48.8 369.71,-84.8"/>
<text text-anchor="middle" x="306" y="-62.6" font-family="Times,serif" font-size="14.00">PermissionsModule</text>
</g>
<!-- PermissionsModule&#45;&gt;ApiModule -->
<g id="edge4" class="edge">
<title>PermissionsModule&#45;&gt;ApiModule</title>
<path fill="none" stroke="black" d="M352.67,-84.91C352.67,-84.91 352.67,-103.79 352.67,-103.79"/>
<polygon fill="black" stroke="black" points="349.17,-103.79 352.67,-113.79 356.17,-103.79 349.17,-103.79"/>
</g>
<!-- RolesModule -->
<g id="node5" class="node">
<title>RolesModule</title>
<polygon fill="#8dd3c7" stroke="black" points="224.94,-84.8 221.94,-88.8 200.94,-88.8 197.94,-84.8 133.06,-84.8 133.06,-48.8 224.94,-48.8 224.94,-84.8"/>
<text text-anchor="middle" x="179" y="-62.6" font-family="Times,serif" font-size="14.00">RolesModule</text>
</g>
<!-- RolesModule&#45;&gt;ApiModule -->
<g id="edge5" class="edge">
<title>RolesModule&#45;&gt;ApiModule</title>
<path fill="none" stroke="black" d="M179,-84.82C179,-102.17 179,-125.8 179,-125.8 179,-125.8 325.66,-125.8 325.66,-125.8"/>
<polygon fill="black" stroke="black" points="325.66,-129.3 335.66,-125.8 325.66,-122.3 325.66,-129.3"/>
</g>
<!-- UsersModule -->
<g id="node6" class="node">
<title>UsersModule</title>
<polygon fill="#8dd3c7" stroke="black" points="115.92,-84.8 112.92,-88.8 91.92,-88.8 88.92,-84.8 24.08,-84.8 24.08,-48.8 115.92,-48.8 115.92,-84.8"/>
<text text-anchor="middle" x="70" y="-62.6" font-family="Times,serif" font-size="14.00">UsersModule</text>
</g>
<!-- UsersModule&#45;&gt;ApiModule -->
<g id="edge6" class="edge">
<title>UsersModule&#45;&gt;ApiModule</title>
<path fill="none" stroke="black" d="M70,-85.08C70,-106.12 70,-137.8 70,-137.8 70,-137.8 325.68,-137.8 325.68,-137.8"/>
<polygon fill="black" stroke="black" points="325.68,-141.3 335.68,-137.8 325.68,-134.3 325.68,-141.3"/>
</g>
</g>
</svg>
