<?xml version="1.0" encoding="UTF-8" standalone="no"?>
<!DOCTYPE svg PUBLIC "-//W3C//DTD SVG 1.1//EN"
 "http://www.w3.org/Graphics/SVG/1.1/DTD/svg11.dtd">
<!-- Generated by graphviz version 2.47.3 (20210619.1520)
 -->
<!-- Title: dependencies Pages: 1 -->
<svg width="230pt" height="247pt"
 viewBox="0.00 0.00 230.00 246.80" xmlns="http://www.w3.org/2000/svg" xmlns:xlink="http://www.w3.org/1999/xlink">
<g id="graph0" class="graph" transform="scale(1 1) rotate(0) translate(4 242.8)">
<title>dependencies</title>
<polygon fill="white" stroke="transparent" points="-4,4 -4,-242.8 226,-242.8 226,4 -4,4"/>
<text text-anchor="middle" x="111" y="-8.2" font-family="sans-serif" font-size="14.00">dependencies</text>
<g id="clust1" class="cluster">
<title>cluster_PermissionsModule</title>
<polygon fill="none" stroke="black" stroke-dasharray="1,5" points="8,-32.8 8,-230.8 214,-230.8 214,-32.8 8,-32.8"/>
</g>
<g id="clust6" class="cluster">
<title>cluster_PermissionsModule_providers</title>
<polygon fill="none" stroke="black" points="16,-40.8 16,-92.8 206,-92.8 206,-40.8 16,-40.8"/>
</g>
<g id="clust4" class="cluster">
<title>cluster_PermissionsModule_exports</title>
<polygon fill="none" stroke="black" points="38,-170.8 38,-222.8 184,-222.8 184,-170.8 38,-170.8"/>
</g>
<!-- PermissionsService  -->
<g id="node1" class="node">
<title>PermissionsService </title>
<polygon fill="#fb8072" stroke="black" points="175.64,-214.8 46.36,-214.8 46.36,-178.8 175.64,-178.8 175.64,-214.8"/>
<text text-anchor="middle" x="111" y="-192.6" font-family="Times,serif" font-size="14.00">PermissionsService </text>
</g>
<!-- PermissionsModule -->
<g id="node2" class="node">
<title>PermissionsModule</title>
<polygon fill="#8dd3c7" stroke="black" points="174.71,-149.8 171.71,-153.8 150.71,-153.8 147.71,-149.8 47.29,-149.8 47.29,-113.8 174.71,-113.8 174.71,-149.8"/>
<text text-anchor="middle" x="111" y="-127.6" font-family="Times,serif" font-size="14.00">PermissionsModule</text>
</g>
<!-- PermissionsModule&#45;&gt;PermissionsService  -->
<g id="edge1" class="edge">
<title>PermissionsModule&#45;&gt;PermissionsService </title>
<path fill="none" stroke="black" stroke-dasharray="5,2" d="M111,-149.91C111,-149.91 111,-168.79 111,-168.79"/>
<polygon fill="black" stroke="black" points="107.5,-168.79 111,-178.79 114.5,-168.79 107.5,-168.79"/>
</g>
<!-- PermissionsService -->
<g id="node3" class="node">
<title>PermissionsService</title>
<ellipse fill="#fdb462" stroke="black" cx="111" cy="-66.8" rx="86.83" ry="18"/>
<text text-anchor="middle" x="111" y="-62.6" font-family="Times,serif" font-size="14.00">PermissionsService</text>
</g>
<!-- PermissionsService&#45;&gt;PermissionsModule -->
<g id="edge2" class="edge">
<title>PermissionsService&#45;&gt;PermissionsModule</title>
<path fill="none" stroke="black" d="M111,-84.91C111,-84.91 111,-103.79 111,-103.79"/>
<polygon fill="black" stroke="black" points="107.5,-103.79 111,-113.79 114.5,-103.79 107.5,-103.79"/>
</g>
</g>
</svg>
